<svg width="100" height="100" viewBox="0 0 100 100" xmlns="http://www.w3.org/2000/svg">
  <g fill="none" stroke="#A855F7" stroke-width="0.5" opacity="0.3">
    <rect x="25" y="25" width="50" height="50" rx="2" />
    <rect x="35" y="35" width="30" height="30" rx="1" />
    
    <!-- Pins -->
    <line x1="25" y1="35" x2="15" y2="35" />
    <line x1="25" y1="45" x2="15" y2="45" />
    <line x1="25" y1="55" x2="15" y2="55" />
    <line x1="25" y1="65" x2="15" y2="65" />
    
    <line x1="75" y1="35" x2="85" y2="35" />
    <line x1="75" y1="45" x2="85" y2="45" />
    <line x1="75" y1="55" x2="85" y2="55" />
    <line x1="75" y1="65" x2="85" y2="65" />
    
    <line x1="35" y1="25" x2="35" y2="15" />
    <line x1="45" y1="25" x2="45" y2="15" />
    <line x1="55" y1="25" x2="55" y2="15" />
    <line x1="65" y1="25" x2="65" y2="15" />
    
    <line x1="35" y1="75" x2="35" y2="85" />
    <line x1="45" y1="75" x2="45" y2="85" />
    <line x1="55" y1="75" x2="55" y2="85" />
    <line x1="65" y1="75" x2="65" y2="85" />
    
    <!-- Pin endpoints -->
    <circle cx="15" cy="35" r="1" fill="#A855F7" />
    <circle cx="15" cy="45" r="1" fill="#A855F7" />
    <circle cx="15" cy="55" r="1" fill="#A855F7" />
    <circle cx="15" cy="65" r="1" fill="#A855F7" />
    
    <circle cx="85" cy="35" r="1" fill="#A855F7" />
    <circle cx="85" cy="45" r="1" fill="#A855F7" />
    <circle cx="85" cy="55" r="1" fill="#A855F7" />
    <circle cx="85" cy="65" r="1" fill="#A855F7" />
    
    <circle cx="35" cy="15" r="1" fill="#A855F7" />
    <circle cx="45" cy="15" r="1" fill="#A855F7" />
    <circle cx="55" cy="15" r="1" fill="#A855F7" />
    <circle cx="65" cy="15" r="1" fill="#A855F7" />
    
    <circle cx="35" cy="85" r="1" fill="#A855F7" />
    <circle cx="45" cy="85" r="1" fill="#A855F7" />
    <circle cx="55" cy="85" r="1" fill="#A855F7" />
    <circle cx="65" cy="85" r="1" fill="#A855F7" />
  </g>
</svg> 